erDiagram
  SILVER_CDR_CUSTOMERS ||--o{ SILVER_NETWORK_LOGS : phone_number
  SILVER_CDR_CUSTOMERS ||--o{ SILVER_CALL_TESTS : phone_number
  SILVER_TOWERS ||--o{ SILVER_NETWORK_LOGS : join_espacial
  SILVER_NETWORK_LOGS ||--o{ GOLD_NETWORK_QUALITY_DAILY : builds
  SILVER_TOWERS ||--o{ GOLD_NETWORK_QUALITY_DAILY : joins
  SILVER_CDR_CUSTOMERS ||--o{ GOLD_CHURN_RISK_DAILY : builds
  SILVER_CALL_TESTS ||--o{ GOLD_CHURN_RISK_DAILY : builds
  SILVER_NETWORK_LOGS ||--o{ GOLD_CHURN_RISK_DAILY : builds

  SILVER_CDR_CUSTOMERS {
    int silver_row_id PK
    string phone_number
    boolean churn
  }

  SILVER_NETWORK_LOGS {
    int silver_row_id PK
    string phone_number FK
    float rsrp
    float latitude
    float longitude
  }

  SILVER_CALL_TESTS {
    int silver_row_id PK
    string phone_number FK
    float mos
  }

  SILVER_TOWERS {
    int silver_row_id PK
    float lat
    float lon
  }

  GOLD_NETWORK_QUALITY_DAILY {
    int gold_row_id PK
    string Telefone
    float Potencia_RSRP
  }

  GOLD_CHURN_RISK_DAILY {
    int gold_row_id PK
    string Telefone FK
    boolean Desistencia
  }
